<svg width="260" height="63" viewBox="0 0 260 63" fill="none" xmlns="http://www.w3.org/2000/svg">
<path d="M82.8452 63V0H115.655C119.896 0 123.41 0.795919 126.198 2.38776C129.045 3.91837 131.166 6.09184 132.56 8.90816C133.953 11.6633 134.65 14.8469 134.65 18.4592C134.65 22.8061 133.68 26.5408 131.742 29.6633C129.803 32.7857 127.137 35.0204 123.744 36.3673L136.831 63H127.379L115.2 37.9286H91.4794V63H82.8452ZM91.4794 30.4898H114.837C118.291 30.4898 120.987 29.4184 122.926 27.2755C124.925 25.1327 125.925 22.1939 125.925 18.4592C125.925 16.1327 125.501 14.1735 124.653 12.5816C123.804 10.9898 122.562 9.76531 120.926 8.90816C119.29 7.9898 117.261 7.53061 114.837 7.53061H91.4794V30.4898Z" fill="#FBFCFF"/>
<path d="M148.879 63V0H179.689C183.991 0 187.566 0.826531 190.414 2.47959C193.261 4.07143 195.382 6.30612 196.776 9.18367C198.23 12.0612 198.957 15.398 198.957 19.1939C198.957 23.051 198.169 26.4796 196.594 29.4796C195.019 32.4184 192.777 34.7143 189.868 36.3673C187.021 38.0204 183.597 38.8469 179.598 38.8469H157.513V63H148.879ZM157.513 31.3163H179.053C182.446 31.3163 185.142 30.2449 187.142 28.102C189.202 25.9592 190.232 23.0204 190.232 19.2857C190.232 16.7755 189.808 14.6633 188.96 12.949C188.111 11.2347 186.869 9.91837 185.233 9C183.597 8.02041 181.537 7.53061 179.053 7.53061H157.513V31.3163Z" fill="#FBFCFF"/>
<path d="M200.197 63L224.555 29.9388L202.47 0H213.103L230.099 23.4184H230.553L247.367 0H257.455L235.643 29.8469L260 63H249.366L230.099 36.4592H229.644L210.467 63H200.197Z" fill="#FBFCFF"/>
<path d="M47.8663 0.384049L20.2112 27.7014L3.5705 14.649L0 16.6333V46.7507L3.5705 48.735L20.2112 35.6827L47.8663 63L60.5902 57.7526V5.63144L47.8663 0.384049ZM5.3882 38.7033V24.6808L12.9836 31.692L5.3882 38.7033ZM45.7456 43.4876L30.2951 31.692L45.7456 19.8964V43.4876Z" fill="#FBFCFF"/>
</svg>
