<svg width="128" height="88" viewBox="0 0 128 88" fill="none" xmlns="http://www.w3.org/2000/svg">
<g opacity="0.3">
<circle cx="4" cy="4" r="4" fill="#27194C"/>
<circle cx="24" cy="4" r="4" fill="#27194C"/>
<circle cx="44" cy="4" r="4" fill="#27194C"/>
<circle cx="64" cy="4" r="4" fill="#27194C"/>
<circle cx="84" cy="4" r="4" fill="#27194C"/>
<circle cx="104" cy="4" r="4" fill="#27194C"/>
<circle cx="124" cy="4" r="4" fill="#27194C"/>
<circle cx="4" cy="24" r="4" fill="#27194C"/>
<circle cx="24" cy="24" r="4" fill="#27194C"/>
<circle cx="44" cy="24" r="4" fill="#27194C"/>
<circle cx="64" cy="24" r="4" fill="#27194C"/>
<circle cx="84" cy="24" r="4" fill="#27194C"/>
<circle cx="104" cy="24" r="4" fill="#27194C"/>
<circle cx="124" cy="24" r="4" fill="#27194C"/>
<circle cx="4" cy="44" r="4" fill="#27194C"/>
<circle cx="24" cy="44" r="4" fill="#27194C"/>
<circle cx="44" cy="44" r="4" fill="#27194C"/>
<circle cx="64" cy="44" r="4" fill="#27194C"/>
<circle cx="84" cy="44" r="4" fill="#27194C"/>
<circle cx="104" cy="44" r="4" fill="#27194C"/>
<circle cx="124" cy="44" r="4" fill="#27194C"/>
<circle cx="4" cy="64" r="4" fill="#27194C"/>
<circle cx="24" cy="64" r="4" fill="#27194C"/>
<circle cx="44" cy="64" r="4" fill="#27194C"/>
<circle cx="64" cy="64" r="4" fill="#27194C"/>
<circle cx="84" cy="64" r="4" fill="#27194C"/>
<circle cx="104" cy="64" r="4" fill="#27194C"/>
<circle cx="124" cy="64" r="4" fill="#27194C"/>
<circle cx="4" cy="84" r="4" fill="#27194C"/>
<circle cx="24" cy="84" r="4" fill="#27194C"/>
<circle cx="44" cy="84" r="4" fill="#27194C"/>
<circle cx="64" cy="84" r="4" fill="#27194C"/>
<circle cx="84" cy="84" r="4" fill="#27194C"/>
<circle cx="104" cy="84" r="4" fill="#27194C"/>
<circle cx="124" cy="84" r="4" fill="#27194C"/>
</g>
</svg>
