<svg width="146" height="35" viewBox="0 0 146 35" fill="none" xmlns="http://www.w3.org/2000/svg">
<path d="M46.5208 35V0H64.9447C67.3263 0 69.2997 0.442177 70.8648 1.32653C72.4639 2.17687 73.6547 3.38435 74.4373 4.94898C75.2198 6.47959 75.6111 8.2483 75.6111 10.2551C75.6111 12.6701 75.0667 14.7449 73.978 16.4796C72.8892 18.2143 71.3922 19.4558 69.4868 20.2041L76.836 35H71.5283L64.6895 21.0714H51.3692V35H46.5208ZM51.3692 16.9388H64.4853C66.4247 16.9388 67.9387 16.3435 69.0275 15.1531C70.1503 13.9626 70.7117 12.3299 70.7117 10.2551C70.7117 8.96259 70.4735 7.87415 69.9972 6.9898C69.5209 6.10544 68.8234 5.42517 67.9047 4.94898C66.9861 4.43878 65.8463 4.18367 64.4853 4.18367H51.3692V16.9388Z" fill="#27194C"/>
<path d="M83.6014 35V0H100.902C103.318 0 105.326 0.459184 106.925 1.37755C108.524 2.26191 109.715 3.5034 110.497 5.10204C111.314 6.70068 111.722 8.55442 111.722 10.6633C111.722 12.8061 111.28 14.7109 110.395 16.3776C109.51 18.0102 108.252 19.2857 106.618 20.2041C105.019 21.1224 103.097 21.5816 100.851 21.5816H88.4498V35H83.6014ZM88.4498 17.398H100.545C102.451 17.398 103.965 16.8027 105.087 15.6122C106.244 14.4218 106.823 12.7891 106.823 10.7143C106.823 9.31973 106.584 8.14626 106.108 7.19388C105.632 6.2415 104.934 5.51021 104.016 5C103.097 4.45578 101.94 4.18367 100.545 4.18367H88.4498V17.398Z" fill="#27194C"/>
<path d="M112.419 35L126.096 16.6327L113.694 0H119.666L129.209 13.0102H129.464L138.906 0H144.571L132.322 16.5816L146 35H140.029L129.209 20.2551H128.954L118.186 35H112.419Z" fill="#27194C"/>
<path d="M26.8788 0.213361L11.3494 15.3896L2.00497 8.13835L0 9.24074V25.9726L2.00497 27.075L11.3494 19.8237L26.8788 35L34.0238 32.0848V3.12858L26.8788 0.213361ZM3.02568 21.5018V13.7116L7.2908 17.6067L3.02568 21.5018ZM25.6879 24.1598L17.0119 17.6067L25.6879 11.0536V24.1598Z" fill="#27194C"/>
</svg>
