<svg width="36" height="32" viewBox="0 0 36 32" fill="none" xmlns="http://www.w3.org/2000/svg">
<path d="M6.75 9.14286C6.75 7.87857 7.75547 6.85714 9 6.85714H18C19.2445 6.85714 20.25 7.87857 20.25 9.14286V16C20.25 17.2643 19.2445 18.2857 18 18.2857H9C7.75547 18.2857 6.75 17.2643 6.75 16V9.14286ZM18 20.5714C20.482 20.5714 22.5 18.5214 22.5 16V13.7143H27C28.2445 13.7143 29.25 14.7357 29.25 16V22.8571C29.25 24.1214 28.2445 25.1429 27 25.1429H18C16.7555 25.1429 15.75 24.1214 15.75 22.8571V20.5714H18ZM1.125 5.98571C0.434531 5.29286 0 4.44429 0 3.42857C0 1.535 1.51102 0 3.375 0C4.37484 0 5.21016 0.441429 5.89219 1.14286H30.1078C30.7266 0.441429 31.6266 0 32.625 0C34.4883 0 36 1.535 36 3.42857C36 4.44429 35.5641 5.29286 34.875 5.98571V26.0143C35.5641 26.6429 36 27.5571 36 28.5714C36 30.4643 34.4883 32 32.625 32C31.6266 32 30.7266 31.5571 30.1078 30.8571H5.89219C5.21016 31.5571 4.37484 32 3.375 32C1.51102 32 0 30.4643 0 28.5714C0 27.5571 0.434531 26.6429 1.125 26.0143V5.98571ZM4.5 6.66429V25.3357C5.45625 25.6857 6.21563 26.4571 6.56016 27.4286H29.4398C29.7844 26.4571 30.5438 25.6857 31.5 25.3357V6.66429C30.5438 6.31429 29.7844 5.54286 29.4398 4.57143H6.56016C6.21563 5.54286 5.45625 6.31429 4.5 6.66429Z" fill="#27194C"/>
</svg>
